<svg width="32" height="32" viewBox="0 0 32 32" fill="none" xmlns="http://www.w3.org/2000/svg">
<path d="M10.1551 26.6667C9.55856 26.6667 9.05044 26.4568 8.63077 26.0372C8.21112 25.6175 8.0013 25.1094 8.0013 24.5128V7.99999H6.66797V6.66666H12.0013V5.64099H20.0013V6.66666H25.3346V7.99999H24.0013V24.5128C24.0013 25.1265 23.7957 25.6389 23.3846 26.05C22.9735 26.4611 22.4611 26.6667 21.8475 26.6667H10.1551ZM22.668 7.99999H9.33464V24.5128C9.33464 24.7521 9.41156 24.9487 9.5654 25.1026C9.71925 25.2564 9.91582 25.3333 10.1551 25.3333H21.8475C22.0526 25.3333 22.2406 25.2479 22.4116 25.0769C22.5825 24.906 22.668 24.7179 22.668 24.5128V7.99999ZM13.0782 22.6667H14.4116V10.6667H13.0782V22.6667ZM17.591 22.6667H18.9244V10.6667H17.591V22.6667Z" fill="#CC0000"/>
</svg>
